<?xml version="1.0" encoding="utf-8"?>
<!-- Generator: Adobe Illustrator 21.0.2, SVG Export Plug-In . SVG Version: 6.00 Build 0)  -->
<svg version="1.1" id="Layer_1" xmlns="http://www.w3.org/2000/svg" xmlns:xlink="http://www.w3.org/1999/xlink" x="0px" y="0px"
	 viewBox="0 0 100 100" style="enable-background:new 0 0 100 100; fill: white;" xml:space="preserve">
<g>
	<path d="M89,43h-4.7c-0.9-4.5-2.7-8.6-5.1-12.3l3.3-3.3c1.1-1.1,1.8-2.6,1.8-4.2c0-1.6-0.6-3.1-1.8-4.2l-1.4-1.4
		c-1.1-1.1-2.6-1.8-4.2-1.8s-3.1,0.6-4.2,1.8l-3.3,3.3c-3.7-2.4-7.8-4.2-12.3-5.1V11c0-3.3-2.7-6-6-6h-2c-3.3,0-6,2.7-6,6v4.7
		c-4.5,0.9-8.6,2.7-12.3,5.1l-3.3-3.3c-2.3-2.3-6.1-2.3-8.5,0l-1.4,1.4c-2.3,2.3-2.3,6.1,0,8.5l3.3,3.3c-2.4,3.7-4.2,7.8-5.1,12.3
		H11c-3.3,0-6,2.7-6,6v2c0,3.3,2.7,6,6,6h4.7c0.9,4.5,2.7,8.6,5.1,12.3l-3.3,3.3c-1.1,1.1-1.8,2.6-1.8,4.2c0,1.6,0.6,3.1,1.8,4.2
		l1.4,1.4c1.1,1.1,2.6,1.8,4.2,1.8s3.1-0.6,4.2-1.8l3.3-3.3c3.7,2.4,7.8,4.2,12.3,5.1V89c0,3.3,2.7,6,6,6h2c3.3,0,6-2.7,6-6v-4.7
		c4.5-0.9,8.6-2.7,12.3-5.1l3.3,3.3c1.1,1.1,2.6,1.8,4.2,1.8s3.1-0.6,4.2-1.8l1.4-1.4c1.1-1.1,1.8-2.6,1.8-4.2
		c0-1.6-0.6-3.1-1.8-4.2l-3.3-3.3c2.4-3.7,4.2-7.8,5.1-12.3H89c3.3,0,6-2.7,6-6v-2C95,45.7,92.3,43,89,43z M15.1,53H11
		c-1.1,0-2-0.9-2-2v-2c0-1.1,0.9-2,2-2h4.1C15,48,15,49,15,50S15,52,15.1,53z M75.5,20.3c0.4-0.4,0.9-0.6,1.4-0.6
		c0.5,0,1,0.2,1.4,0.6l1.4,1.4c0.4,0.4,0.6,0.9,0.6,1.4c0,0.5-0.2,1-0.6,1.4l-2.9,2.9c-1.3-1.5-2.7-3-4.2-4.2L75.5,20.3z M47,11
		c0-1.1,0.9-2,2-2h2c1.1,0,2,0.9,2,2v4.1C52,15,51,15,50,15s-2,0-3,0.1V11z M20.3,24.5c-0.4-0.4-0.6-0.9-0.6-1.4
		c0-0.5,0.2-1,0.6-1.4l1.4-1.4c0.4-0.4,0.9-0.6,1.4-0.6c0.5,0,1,0.2,1.4,0.6l2.9,2.9c-1.5,1.3-2.9,2.7-4.2,4.2L20.3,24.5z
		 M24.5,79.7c-0.8,0.8-2.1,0.8-2.8,0l-1.4-1.4c-0.4-0.4-0.6-0.9-0.6-1.4c0-0.5,0.2-1,0.6-1.4l2.9-2.9c1.3,1.5,2.7,3,4.2,4.2
		L24.5,79.7z M53,89c0,1.1-0.9,2-2,2h-2c-1.1,0-2-0.9-2-2v-4.1c1,0.1,2,0.1,3,0.1s2,0,3-0.1V89z M79.7,75.5c0.4,0.4,0.6,0.9,0.6,1.4
		c0,0.5-0.2,1-0.6,1.4l-1.4,1.4c-0.8,0.8-2.1,0.8-2.8,0l-2.9-2.9c1.5-1.3,2.9-2.7,4.2-4.2L79.7,75.5z M50,81c-17.1,0-31-13.9-31-31
		c0-17.1,13.9-31,31-31s31,13.9,31,31C81,67.1,67.1,81,50,81z M91,51c0,1.1-0.9,2-2,2h-4.1c0.1-1,0.1-2,0.1-3s0-2-0.1-3H89
		c1.1,0,2,0.9,2,2V51z"/>
	<path d="M67.7,32.3c0,0-0.1-0.1-0.1-0.1C63,27.8,56.8,25,50,25s-13,2.8-17.6,7.2c0,0-0.1,0.1-0.1,0.1c0,0-0.1,0.1-0.1,0.1
		C27.8,37,25,43.2,25,50c0,6.8,2.8,13,7.2,17.6c0,0,0.1,0.1,0.1,0.1c0,0,0.1,0.1,0.1,0.1C37,72.2,43.2,75,50,75s13-2.8,17.6-7.2
		c0,0,0.1-0.1,0.1-0.1c0,0,0.1-0.1,0.1-0.1C72.2,63,75,56.8,75,50c0-6.8-2.8-13-7.2-17.6C67.7,32.4,67.7,32.4,67.7,32.3z M52,29.1
		c4.3,0.4,8.2,2.1,11.4,4.7l-10,10c-0.4-0.2-0.9-0.4-1.3-0.5V29.1z M48,29.1v14.2c-0.5,0.1-0.9,0.3-1.3,0.5l-10-10
		C39.8,31.2,43.7,29.5,48,29.1z M33.8,36.6l10,10c-0.2,0.4-0.4,0.9-0.6,1.3H29.1C29.5,43.7,31.2,39.8,33.8,36.6z M29.1,52h14.2
		c0.1,0.5,0.3,0.9,0.6,1.3l-10,10C31.2,60.2,29.5,56.3,29.1,52z M48,70.9c-4.3-0.4-8.2-2.1-11.4-4.7l10-10c0.4,0.2,0.9,0.4,1.3,0.5
		V70.9z M47,50c0-1.7,1.3-3,3-3s3,1.3,3,3c0,1.6-1.3,3-3,3S47,51.6,47,50z M52,70.9V56.7c0.5-0.1,0.9-0.3,1.3-0.5l10,10
		C60.2,68.8,56.3,70.5,52,70.9z M66.2,63.4l-10-10c0.2-0.4,0.4-0.9,0.6-1.3h14.2C70.5,56.3,68.8,60.2,66.2,63.4z M56.7,48
		c-0.1-0.5-0.3-0.9-0.6-1.3l10-10c2.6,3.1,4.3,7.1,4.7,11.4H56.7z"/>
</g>
</svg>
